<svg xmlns="http://www.w3.org/2000/svg" width="805" height="600"><rect width="805" height="600" x="0" y="0" fill="#FFFFFF" id="background"/><g transform="translate(20,20)" id="viz"><g id="nodes"><g transform="translate(383.5,281)"><path id="p_945.5" d="M-5.143516556418883e-14,280A280,280,0,1,1,5.143516556418883e-14,-280A280,280,0,1,1,-5.143516556418883e-14,280Z" fill="none" stroke="#ccc"/></g><g transform="translate(287.0388795330019,249.2757576606216)" id="S10-Rev23"><path id="p_640.8952699356777" d="M-1.9027453551182147e-14,103.58063274205429A103.58063274205429,103.58063274205429,0,1,1,1.9027453551182147e-14,-103.58063274205429A103.58063274205429,103.58063274205429,0,1,1,-1.9027453551182147e-14,103.58063274205429Z" fill="none" stroke="#ccc"/></g><g transform="translate(514.1256655775676,249.2757576606216)" id="L20"><path id="p_886.0850658039114" d="M-2.2352922506505352e-14,121.68364256572224A121.68364256572224,121.68364256572224,0,1,1,2.2352922506505352e-14,-121.68364256572224A121.68364256572224,121.68364256572224,0,1,1,-2.2352922506505352e-14,121.68364256572224Z" fill="none" stroke="#ccc"/></g><g transform="translate(382.4337005915548,445.9703674825239)" id="A22"><path id="p_942.6077438342143" d="M-2.0795177875704748e-14,113.2036757601357A113.2036757601357,113.2036757601357,0,1,1,2.0795177875704748e-14,-113.2036757601357A113.2036757601357,113.2036757601357,0,1,1,-2.0795177875704748e-14,113.2036757601357Z" fill="none" stroke="#ccc"/></g><g transform="translate(384.7544631501871,86.91825781709733)" id="IN23"><path id="p_556.7644139275565" d="M-1.5447393392801858e-14,84.09169296027196A84.09169296027196,84.09169296027196,0,1,1,1.5447393392801858e-14,-84.09169296027196A84.09169296027196,84.09169296027196,0,1,1,-1.5447393392801858e-14,84.09169296027196Z" fill="none" stroke="#ccc"/></g><g transform="translate(287.0388795330019,249.2757576606216)" id="M"><path id="p_639.0727591988885" d="M-1.8692663760149064e-14,101.75812200526511A101.75812200526511,101.75812200526511,0,1,1,1.8692663760149064e-14,-101.75812200526511A101.75812200526511,101.75812200526511,0,1,1,-1.8692663760149064e-14,101.75812200526511Z" fill="none" stroke="#ccc"/></g><g transform="translate(487.09143818156076,249.2757576606216)" id="M"><path id="p_830.1941002751087" d="M-1.7052025708281057e-14,92.82690443292626A92.82690443292626,92.82690443292626,0,1,1,1.7052025708281057e-14,-92.82690443292626A92.82690443292626,92.82690443292626,0,1,1,-1.7052025708281057e-14,92.82690443292626Z" fill="none" stroke="#ccc"/></g><g transform="translate(607.8638253788885,249.2757576606216)" id="F"><path id="p_884.2625550671223" d="M-4.798712111674672e-15,26.12297202761222A26.12297202761222,26.12297202761222,0,1,1,4.798712111674672e-15,-26.12297202761222A26.12297202761222,26.12297202761222,0,1,1,-4.798712111674672e-15,26.12297202761222Z" fill="none" stroke="#ccc"/></g><g transform="translate(326.28749039568424,445.9703674825239)" id="M"><path id="p_828.4928127056841" d="M-1.0146496594577562e-14,55.23495482747597A55.23495482747597,55.23495482747597,0,1,1,1.0146496594577562e-14,-55.23495482747597A55.23495482747597,55.23495482747597,0,1,1,-1.0146496594577562e-14,55.23495482747597Z" fill="none" stroke="#ccc"/></g><g transform="translate(438.5799107874253,445.9703674825239)" id="F"><path id="p_940.7852330974251" d="M-1.0146496594577562e-14,55.23495482747597A55.23495482747597,55.23495482747597,0,1,1,1.0146496594577562e-14,-55.23495482747597A55.23495482747597,55.23495482747597,0,1,1,-1.0146496594577562e-14,55.23495482747597Z" fill="none" stroke="#ccc"/></g><g transform="translate(357.7202357541803,86.91825781709733)" id="M"><path id="p_500.8734483987536" d="M-1.0146496594577562e-14,55.23495482747597A55.23495482747597,55.23495482747597,0,1,1,1.0146496594577562e-14,-55.23495482747597A55.23495482747597,55.23495482747597,0,1,1,-1.0146496594577562e-14,55.23495482747597Z" fill="none" stroke="#ccc"/></g><g transform="translate(440.90067334605766,86.91825781709733)" id="F"><path id="p_554.9419031907672" d="M-4.798712111674672e-15,26.12297202761222A26.12297202761222,26.12297202761222,0,1,1,4.798712111674672e-15,-26.12297202761222A26.12297202761222,26.12297202761222,0,1,1,-4.798712111674672e-15,26.12297202761222Z" fill="none" stroke="#ccc"/></g><g transform="translate(261.82716287378423,249.2757576606216)" id="Mon Nov 15 1999 00:00:00 GMT-0300 (hora de verano de Argentina)"><path id="p_536.4033818252288" d="M-4.463922320641589e-15,24.30046129082304A24.30046129082304,24.30046129082304,0,1,1,4.463922320641589e-15,-24.30046129082304A24.30046129082304,24.30046129082304,0,1,1,-4.463922320641589e-15,24.30046129082304Z" fill="#1f77b4" stroke="none"/></g><g transform="translate(312.2505961922195,249.2757576606216)" id="Fri Nov 12 1999 00:00:00 GMT-0300 (hora de verano de Argentina)"><path id="p_586.8268151436641" d="M-4.463922320641589e-15,24.30046129082304A24.30046129082304,24.30046129082304,0,1,1,4.463922320641589e-15,-24.30046129082304A24.30046129082304,24.30046129082304,0,1,1,-4.463922320641589e-15,24.30046129082304Z" fill="#1f77b4" stroke="none"/></g><g transform="translate(287.0388795330019,292.9437318604172)" id="Fri Apr 05 2002 00:00:00 GMT-0300 (hora estándar de Argentina)"><path id="p_605.2830726842421" d="M-4.463922320641589e-15,24.30046129082304A24.30046129082304,24.30046129082304,0,1,1,4.463922320641589e-15,-24.30046129082304A24.30046129082304,24.30046129082304,0,1,1,-4.463922320641589e-15,24.30046129082304Z" fill="#1f77b4" stroke="none"/></g><g transform="translate(287.0388795330019,205.60778346082597)" id="Sun Sep 19 1999 00:00:00 GMT-0300 (hora estándar de Argentina)"><path id="p_517.9471242846508" d="M-4.463922320641589e-15,24.30046129082304A24.30046129082304,24.30046129082304,0,1,1,4.463922320641589e-15,-24.30046129082304A24.30046129082304,24.30046129082304,0,1,1,-4.463922320641589e-15,24.30046129082304Z" fill="#1f77b4" stroke="none"/></g><g transform="translate(236.61544621456662,205.60778346082597)" id="Sat Apr 14 2001 00:00:00 GMT-0300 (hora estándar de Argentina)"><path id="p_467.5236909662156" d="M-4.463922320641589e-15,24.30046129082304A24.30046129082304,24.30046129082304,0,1,1,4.463922320641589e-15,-24.30046129082304A24.30046129082304,24.30046129082304,0,1,1,-4.463922320641589e-15,24.30046129082304Z" fill="#1f77b4" stroke="none"/></g><g transform="translate(337.46231285143716,205.60778346082597)" id="Sat Nov 06 1999 00:00:00 GMT-0300 (hora de verano de Argentina)"><path id="p_568.3705576030861" d="M-4.463922320641589e-15,24.30046129082304A24.30046129082304,24.30046129082304,0,1,1,4.463922320641589e-15,-24.30046129082304A24.30046129082304,24.30046129082304,0,1,1,-4.463922320641589e-15,24.30046129082304Z" fill="#1f77b4" stroke="none"/></g><g transform="translate(337.46231285143716,292.9437318604172)" id="Mon Nov 22 1999 00:00:00 GMT-0300 (hora de verano de Argentina)"><path id="p_655.7065060026773" d="M-4.463922320641589e-15,24.30046129082304A24.30046129082304,24.30046129082304,0,1,1,4.463922320641589e-15,-24.30046129082304A24.30046129082304,24.30046129082304,0,1,1,-4.463922320641589e-15,24.30046129082304Z" fill="#1f77b4" stroke="none"/></g><g transform="translate(236.61544621456662,292.9437318604172)" id="Thu Nov 30 1995 00:00:00 GMT-0300 (hora estándar de Argentina)"><path id="p_554.8596393658069" d="M-4.463922320641589e-15,24.30046129082304A24.30046129082304,24.30046129082304,0,1,1,4.463922320641589e-15,-24.30046129082304A24.30046129082304,24.30046129082304,0,1,1,-4.463922320641589e-15,24.30046129082304Z" fill="#1f77b4" stroke="none"/></g><g transform="translate(211.403729555349,249.2757576606216)" id="Sun Mar 05 2000 00:00:00 GMT-0300 (hora estándar de Argentina)"><path id="p_485.9799485067936" d="M-4.463922320641589e-15,24.30046129082304A24.30046129082304,24.30046129082304,0,1,1,4.463922320641589e-15,-24.30046129082304A24.30046129082304,24.30046129082304,0,1,1,-4.463922320641589e-15,24.30046129082304Z" fill="#1f77b4" stroke="none"/></g><g transform="translate(362.67402951065475,249.2757576606216)" id="Sat Mar 25 2000 00:00:00 GMT-0300 (hora estándar de Argentina)"><path id="p_637.2502484620993" d="M-4.463922320641589e-15,24.30046129082304A24.30046129082304,24.30046129082304,0,1,1,4.463922320641589e-15,-24.30046129082304A24.30046129082304,24.30046129082304,0,1,1,-4.463922320641589e-15,24.30046129082304Z" fill="#1f77b4" stroke="none"/></g><g transform="translate(461.8797215223431,249.2757576606216)" id="Tue Aug 28 2001 00:00:00 GMT-0300 (hora estándar de Argentina)"><path id="p_736.4559404737877" d="M-4.463922320641589e-15,24.30046129082304A24.30046129082304,24.30046129082304,0,1,1,4.463922320641589e-15,-24.30046129082304A24.30046129082304,24.30046129082304,0,1,1,-4.463922320641589e-15,24.30046129082304Z" fill="#1f77b4" stroke="none"/></g><g transform="translate(512.3031548407785,249.2757576606216)" id="Fri Jul 25 2003 00:00:00 GMT-0300 (hora estándar de Argentina)"><path id="p_786.8793737922231" d="M-4.463922320641589e-15,24.30046129082304A24.30046129082304,24.30046129082304,0,1,1,4.463922320641589e-15,-24.30046129082304A24.30046129082304,24.30046129082304,0,1,1,-4.463922320641589e-15,24.30046129082304Z" fill="#1f77b4" stroke="none"/></g><g transform="translate(487.09143818156076,292.9437318604172)" id="Wed Oct 22 2003 00:00:00 GMT-0300 (hora estándar de Argentina)"><path id="p_805.335631332801" d="M-4.463922320641589e-15,24.30046129082304A24.30046129082304,24.30046129082304,0,1,1,4.463922320641589e-15,-24.30046129082304A24.30046129082304,24.30046129082304,0,1,1,-4.463922320641589e-15,24.30046129082304Z" fill="#1f77b4" stroke="none"/></g><g transform="translate(487.09143818156076,205.60778346082597)" id="Wed Feb 25 2004 00:00:00 GMT-0300 (hora estándar de Argentina)"><path id="p_717.9996829332098" d="M-4.463922320641589e-15,24.30046129082304A24.30046129082304,24.30046129082304,0,1,1,4.463922320641589e-15,-24.30046129082304A24.30046129082304,24.30046129082304,0,1,1,-4.463922320641589e-15,24.30046129082304Z" fill="#1f77b4" stroke="none"/></g><g transform="translate(436.6680048631255,205.60778346082597)" id="Sat Jan 31 2004 00:00:00 GMT-0300 (hora estándar de Argentina)"><path id="p_667.5762496147745" d="M-4.463922320641589e-15,24.30046129082304A24.30046129082304,24.30046129082304,0,1,1,4.463922320641589e-15,-24.30046129082304A24.30046129082304,24.30046129082304,0,1,1,-4.463922320641589e-15,24.30046129082304Z" fill="#1f77b4" stroke="none"/></g><g transform="translate(537.514871499996,205.60778346082597)" id="Mon Feb 04 2002 00:00:00 GMT-0300 (hora estándar de Argentina)"><path id="p_768.4231162516451" d="M-4.463922320641589e-15,24.30046129082304A24.30046129082304,24.30046129082304,0,1,1,4.463922320641589e-15,-24.30046129082304A24.30046129082304,24.30046129082304,0,1,1,-4.463922320641589e-15,24.30046129082304Z" fill="#1f77b4" stroke="none"/></g><g transform="translate(537.514871499996,292.9437318604172)" id="Tue Dec 22 1998 00:00:00 GMT-0300 (hora estándar de Argentina)"><path id="p_855.7590646512363" d="M-4.463922320641589e-15,24.30046129082304A24.30046129082304,24.30046129082304,0,1,1,4.463922320641589e-15,-24.30046129082304A24.30046129082304,24.30046129082304,0,1,1,-4.463922320641589e-15,24.30046129082304Z" fill="#1f77b4" stroke="none"/></g><g transform="translate(607.8638253788885,249.2757576606216)" id="Tue Oct 17 2000 00:00:00 GMT-0300 (hora estándar de Argentina)"><path id="p_882.4400443303331" d="M-4.463922320641589e-15,24.30046129082304A24.30046129082304,24.30046129082304,0,1,1,4.463922320641589e-15,-24.30046129082304A24.30046129082304,24.30046129082304,0,1,1,-4.463922320641589e-15,24.30046129082304Z" fill="#1f77b4" stroke="none"/></g><g transform="translate(301.0757737364666,431.414376082592)" id="Thu Dec 18 2003 00:00:00 GMT-0300 (hora estándar de Argentina)"><path id="p_757.7906111098816" d="M-4.463922320641589e-15,24.30046129082304A24.30046129082304,24.30046129082304,0,1,1,4.463922320641589e-15,-24.30046129082304A24.30046129082304,24.30046129082304,0,1,1,-4.463922320641589e-15,24.30046129082304Z" fill="#1f77b4" stroke="none"/></g><g transform="translate(351.4992070549019,431.414376082592)" id="Fri Aug 08 2003 00:00:00 GMT-0300 (hora estándar de Argentina)"><path id="p_808.2140444283169" d="M-4.463922320641589e-15,24.30046129082304A24.30046129082304,24.30046129082304,0,1,1,4.463922320641589e-15,-24.30046129082304A24.30046129082304,24.30046129082304,0,1,1,-4.463922320641589e-15,24.30046129082304Z" fill="#1f77b4" stroke="none"/></g><g transform="translate(326.28749039568424,475.08235028238767)" id="Fri Jan 14 2005 00:00:00 GMT-0300 (hora estándar de Argentina)"><path id="p_826.6703019688949" d="M-4.463922320641589e-15,24.30046129082304A24.30046129082304,24.30046129082304,0,1,1,4.463922320641589e-15,-24.30046129082304A24.30046129082304,24.30046129082304,0,1,1,-4.463922320641589e-15,24.30046129082304Z" fill="#1f77b4" stroke="none"/></g><g transform="translate(413.3681941282077,431.414376082592)" id="Tue Sep 07 2004 00:00:00 GMT-0300 (hora estándar de Argentina)"><path id="p_870.0830315016227" d="M-4.463922320641589e-15,24.30046129082304A24.30046129082304,24.30046129082304,0,1,1,4.463922320641589e-15,-24.30046129082304A24.30046129082304,24.30046129082304,0,1,1,-4.463922320641589e-15,24.30046129082304Z" fill="#1f77b4" stroke="none"/></g><g transform="translate(463.79162744664296,431.414376082592)" id="Thu Mar 10 2005 00:00:00 GMT-0300 (hora estándar de Argentina)"><path id="p_920.506464820058" d="M-4.463922320641589e-15,24.30046129082304A24.30046129082304,24.30046129082304,0,1,1,4.463922320641589e-15,-24.30046129082304A24.30046129082304,24.30046129082304,0,1,1,-4.463922320641589e-15,24.30046129082304Z" fill="#1f77b4" stroke="none"/></g><g transform="translate(438.5799107874253,475.08235028238767)" id="Sat Oct 31 1998 00:00:00 GMT-0300 (hora estándar de Argentina)"><path id="p_938.962722360636" d="M-4.463922320641589e-15,24.30046129082304A24.30046129082304,24.30046129082304,0,1,1,4.463922320641589e-15,-24.30046129082304A24.30046129082304,24.30046129082304,0,1,1,-4.463922320641589e-15,24.30046129082304Z" fill="#1f77b4" stroke="none"/></g><g transform="translate(332.50851909496265,72.36226641716546)" id="Mon Jan 21 2002 00:00:00 GMT-0300 (hora estándar de Argentina)"><path id="p_430.17124680295115" d="M-4.463922320641589e-15,24.30046129082304A24.30046129082304,24.30046129082304,0,1,1,4.463922320641589e-15,-24.30046129082304A24.30046129082304,24.30046129082304,0,1,1,-4.463922320641589e-15,24.30046129082304Z" fill="#1f77b4" stroke="none"/></g><g transform="translate(382.93195241339794,72.36226641716546)" id="Fri Aug 09 2002 00:00:00 GMT-0300 (hora estándar de Argentina)"><path id="p_480.59468012138643" d="M-4.463922320641589e-15,24.30046129082304A24.30046129082304,24.30046129082304,0,1,1,4.463922320641589e-15,-24.30046129082304A24.30046129082304,24.30046129082304,0,1,1,-4.463922320641589e-15,24.30046129082304Z" fill="#1f77b4" stroke="none"/></g><g transform="translate(357.7202357541803,116.03024061696107)" id="Thu Jul 11 2002 00:00:00 GMT-0300 (hora estándar de Argentina)"><path id="p_499.0509376619644" d="M-4.463922320641589e-15,24.30046129082304A24.30046129082304,24.30046129082304,0,1,1,4.463922320641589e-15,-24.30046129082304A24.30046129082304,24.30046129082304,0,1,1,-4.463922320641589e-15,24.30046129082304Z" fill="#1f77b4" stroke="none"/></g><g transform="translate(440.90067334605766,86.91825781709733)" id="Wed Apr 03 2002 00:00:00 GMT-0300 (hora estándar de Argentina)"><path id="p_553.119392453978" d="M-4.463922320641589e-15,24.30046129082304A24.30046129082304,24.30046129082304,0,1,1,4.463922320641589e-15,-24.30046129082304A24.30046129082304,24.30046129082304,0,1,1,-4.463922320641589e-15,24.30046129082304Z" fill="#1f77b4" stroke="none"/></g></g><g id="labels"><g transform="translate(261.82716287378423,249.2757576606216)"><text text-anchor="middle" dominant-baseline="text-before-edge" transform="translate(0,0)"/></g><g transform="translate(312.2505961922195,249.2757576606216)"><text text-anchor="middle" dominant-baseline="text-before-edge" transform="translate(0,0)"/></g><g transform="translate(287.0388795330019,292.9437318604172)"><text text-anchor="middle" dominant-baseline="text-before-edge" transform="translate(0,0)"/></g><g transform="translate(287.0388795330019,205.60778346082597)"><text text-anchor="middle" dominant-baseline="text-before-edge" transform="translate(0,0)"/></g><g transform="translate(236.61544621456662,205.60778346082597)"><text text-anchor="middle" dominant-baseline="text-before-edge" transform="translate(0,0)"/></g><g transform="translate(337.46231285143716,205.60778346082597)"><text text-anchor="middle" dominant-baseline="text-before-edge" transform="translate(0,0)"/></g><g transform="translate(337.46231285143716,292.9437318604172)"><text text-anchor="middle" dominant-baseline="text-before-edge" transform="translate(0,0)"/></g><g transform="translate(236.61544621456662,292.9437318604172)"><text text-anchor="middle" dominant-baseline="text-before-edge" transform="translate(0,0)"/></g><g transform="translate(211.403729555349,249.2757576606216)"><text text-anchor="middle" dominant-baseline="text-before-edge" transform="translate(0,0)"/></g><g transform="translate(362.67402951065475,249.2757576606216)"><text text-anchor="middle" dominant-baseline="text-before-edge" transform="translate(0,0)"/></g><g transform="translate(461.8797215223431,249.2757576606216)"><text text-anchor="middle" dominant-baseline="text-before-edge" transform="translate(0,0)"/></g><g transform="translate(512.3031548407785,249.2757576606216)"><text text-anchor="middle" dominant-baseline="text-before-edge" transform="translate(0,0)"/></g><g transform="translate(487.09143818156076,292.9437318604172)"><text text-anchor="middle" dominant-baseline="text-before-edge" transform="translate(0,0)"/></g><g transform="translate(487.09143818156076,205.60778346082597)"><text text-anchor="middle" dominant-baseline="text-before-edge" transform="translate(0,0)"/></g><g transform="translate(436.6680048631255,205.60778346082597)"><text text-anchor="middle" dominant-baseline="text-before-edge" transform="translate(0,0)"/></g><g transform="translate(537.514871499996,205.60778346082597)"><text text-anchor="middle" dominant-baseline="text-before-edge" transform="translate(0,0)"/></g><g transform="translate(537.514871499996,292.9437318604172)"><text text-anchor="middle" dominant-baseline="text-before-edge" transform="translate(0,0)"/></g><g transform="translate(607.8638253788885,249.2757576606216)"><text text-anchor="middle" dominant-baseline="text-before-edge" transform="translate(0,0)"/></g><g transform="translate(301.0757737364666,431.414376082592)"><text text-anchor="middle" dominant-baseline="text-before-edge" transform="translate(0,0)"/></g><g transform="translate(351.4992070549019,431.414376082592)"><text text-anchor="middle" dominant-baseline="text-before-edge" transform="translate(0,0)"/></g><g transform="translate(326.28749039568424,475.08235028238767)"><text text-anchor="middle" dominant-baseline="text-before-edge" transform="translate(0,0)"/></g><g transform="translate(413.3681941282077,431.414376082592)"><text text-anchor="middle" dominant-baseline="text-before-edge" transform="translate(0,0)"/></g><g transform="translate(463.79162744664296,431.414376082592)"><text text-anchor="middle" dominant-baseline="text-before-edge" transform="translate(0,0)"/></g><g transform="translate(438.5799107874253,475.08235028238767)"><text text-anchor="middle" dominant-baseline="text-before-edge" transform="translate(0,0)"/></g><g transform="translate(332.50851909496265,72.36226641716546)"><text text-anchor="middle" dominant-baseline="text-before-edge" transform="translate(0,0)"/></g><g transform="translate(382.93195241339794,72.36226641716546)"><text text-anchor="middle" dominant-baseline="text-before-edge" transform="translate(0,0)"/></g><g transform="translate(357.7202357541803,116.03024061696107)"><text text-anchor="middle" dominant-baseline="text-before-edge" transform="translate(0,0)"/></g><g transform="translate(440.90067334605766,86.91825781709733)"><text text-anchor="middle" dominant-baseline="text-before-edge" transform="translate(0,0)"/></g></g></g></svg>